<?xml version="1.0" encoding="UTF-8"?>
<svg xmlns="http://www.w3.org/2000/svg" height="330" width="330" class="pyqrcode"><path transform="scale(10)" stroke="#000" class="pyqrline" d="M4 4.5h7m4 0h1m1 0h1m4 0h7m-25 1h1m5 0h1m2 0h3m1 0h1m1 0h1m2 0h1m5 0h1m-25 1h1m1 0h3m1 0h1m1 0h1m3 0h2m1 0h2m1 0h1m1 0h3m1 0h1m-25 1h1m1 0h3m1 0h1m1 0h1m2 0h1m1 0h4m1 0h1m1 0h3m1 0h1m-25 1h1m1 0h3m1 0h1m3 0h2m2 0h3m1 0h1m1 0h3m1 0h1m-25 1h1m5 0h1m2 0h2m1 0h2m4 0h1m5 0h1m-25 1h7m1 0h1m1 0h1m1 0h1m1 0h1m1 0h1m1 0h7m-15 1h1m1 0h3m-12 1h2m1 0h2m1 0h1m2 0h2m1 0h2m4 0h2m-22 1h2m1 0h1m2 0h2m1 0h2m4 0h1m2 0h3m-21 1h1m4 0h2m2 0h3m3 0h1m1 0h1m1 0h3m1 0h1m-21 1h1m2 0h4m2 0h1m1 0h4m2 0h2m1 0h1m-22 1h1m2 0h5m3 0h3m1 0h2m3 0h2m-25 1h3m4 0h2m1 0h1m1 0h1m6 0h2m-21 1h2m1 0h1m1 0h3m1 0h2m1 0h4m2 0h1m4 0h2m-25 1h1m1 0h1m4 0h1m1 0h1m1 0h1m1 0h1m1 0h1m1 0h2m1 0h3m-23 1h1m1 0h1m1 0h1m1 0h6m4 0h7m1 0h1m-17 1h4m4 0h1m3 0h1m-21 1h7m1 0h5m1 0h1m1 0h1m1 0h1m1 0h3m1 0h1m-25 1h1m5 0h1m2 0h2m2 0h4m3 0h2m-22 1h1m1 0h3m1 0h1m1 0h1m3 0h2m1 0h7m1 0h1m-24 1h1m1 0h3m1 0h1m1 0h2m3 0h1m2 0h3m5 0h1m-25 1h1m1 0h3m1 0h1m3 0h2m1 0h1m2 0h1m2 0h2m2 0h2m-25 1h1m5 0h1m3 0h1m1 0h1m1 0h1m2 0h8m-25 1h7m5 0h2m2 0h2m1 0h1m1 0h1m2 0h1"/></svg>
